<?xml version="1.0" encoding="UTF-8"?>
<svg id="Camada_1" data-name="Camada 1" xmlns="http://www.w3.org/2000/svg" viewBox="0 0 423.16 790.13">
  <defs>
    <style>
      .cls-1 {
        fill: #fff;
      }

      .cls-2 {
        opacity: .92;
      }
    </style>
  </defs>
  <g class="cls-2">
    <g>
      <g>
        <path class="cls-1" d="M73.28,723.8c-4.71-3.18-9.75-8.3-15.11-15.37l-24.03-29.86,17.23-20.5c2.47-2.83,5.68-4.24,9.63-3.73h.05v-1.05h-20v1.05h.95c1.18-.51,2-.07,2.47,.81,.18,.35,.27,.77,.27,1.24s-.24,1-.71,1.59l-20.94,27.74,23.23,28.62c7.3,9.07,14.46,14.87,21.47,17.4,2.83,1,6.01,1.5,9.54,1.5s7.45-1.12,11.75-3.36l-.09-.88c-5.77-.3-11.02-2.03-15.73-5.21Z"/>
        <path class="cls-1" d="M25.65,714.34c-1.53,0-2.85-.54-3.97-1.63-1.12-1.09-1.68-2.4-1.68-3.93v-48.97c0-1.53,.56-2.82,1.68-3.88,1.12-1.06,2.44-1.59,3.97-1.59h1.34l.09-1.05H0v1.05H1.37c1-.43,1.91-.19,2.74,.28,1.89,1.06,2.21,4.77,2.21,4.77v49.03s.07,2.84-1.02,3.93c-1.09,1.09-2.4,1.63-3.93,1.99H0v1.05H27.08l-.09-1.05h-1.34Z"/>
        <path class="cls-1" d="M116.71,696.45c-.98,2.99-2.29,5.6-3.94,7.83-1.65,2.23-3.63,3.93-5.95,5.13-2.32,1.19-5,1.78-8.05,1.78h-11.4v-25.26h11.53c2.15,.06,3.93,.81,5.33,2.25,1.4,1.44,2.09,3.24,2.09,5.39v.78h1.05v-20h-1.05v.72c0,2.15-.7,3.96-2.09,5.42-1.4,1.47-3.17,2.23-5.33,2.29h-11.53v-26.32h15.17c2.3,.22,4.18,1.06,5.6,2.59,1.6,1.72,2.39,4,2.39,6.83v1.11h1.05v-15.25c-.53,.23-1.41,.46-2.64,.7-1.23,.23-2.56,.44-4,.61-1.44,.18-2.8,.26-4.09,.26h-33.49v1.05h1.07c1.42,0,2.64,.54,3.65,1.63,1.01,1.09,1.55,2.4,1.6,3.93v48.88c-.05,1.53-.59,2.84-1.6,3.93-1.01,1.09-2.23,1.63-3.65,1.63h44.37l4.04-17.89h-.14Z"/>
      </g>
      <path class="cls-1" d="M142.98,715.4h7.54v-1.05h-1.75c-1.52,0-2.82-.55-3.9-1.66-1.08-1.1-1.65-2.44-1.71-3.99v-22.77h28.42v22.77c0,1.55-.56,2.89-1.67,3.99-1.11,1.11-2.43,1.66-3.95,1.66h-1.75v1.05h27.37v-1.05h-.53c-1.87,0-3.7-.81-4.76-2.35-.64-.93-.98-2-1.02-3.21v-48.88c.04-1.21,.38-2.28,1.02-3.21,1.05-1.53,2.88-2.35,4.75-2.35h.55s0-1.05,0-1.05h-27.37v1.05h1.75c1.52,0,2.84,.55,3.95,1.64,1.11,1.09,1.67,2.41,1.67,3.94v22.84h-28.42v-22.84c.06-1.68,.74-3.1,2.04-4.25,1.02-.91,2.38-1.32,3.75-1.32h1.58s0-1.05,0-1.05h-27.37v1.05h.55c1.86,0,3.68,.81,4.73,2.34,.64,.93,.99,2.01,1.03,3.22v48.88c-.04,1.21-.39,2.28-1.03,3.22-1.05,1.53-2.89,2.34-4.75,2.34h-.54s0,1.05,0,1.05h19.83Z"/>
      <path class="cls-1" d="M206.15,715.4h19.11v-1.05h-.47c-1.53-.35-2.84-.9-3.93-1.99-1.09-1.09-1.91-3.93-1.91-3.93v-48.94s.82-2.84,1.91-3.93c1.09-1.09,2.4-1.63,3.93-1.21h.47v-1.05h-26.32v1.05h1.28c1.53-.43,2.84,.12,3.93,1.21,1.09,1.09,1.1,3.93,1.1,3.93v48.94s-.01,2.84-1.1,3.93c-1.09,1.09-2.4,1.63-3.93,1.99h-1.28v1.05h7.2Z"/>
      <path class="cls-1" d="M278.07,714.34l4.03-17.89h.42c-.98,2.99-2.29,5.6-3.94,7.83-1.65,2.23-3.63,3.94-5.95,5.13-2.32,1.19-5.01,1.78-8.06,1.78h-10.9v-51.31c.06-1.67,.75-3.08,2.05-4.23,1.02-.89,2.37-1.31,3.73-1.31h.54s0-1.05,0-1.05h-27.37v1.05h1.25c1.66,0,3.08,.54,4.26,1.63,1.18,1.09,1.8,2.4,1.86,3.93v48.88c-.06,1.53-.69,2.84-1.86,3.93-1.18,1.09-2.6,1.63-4.26,1.63h44.19Z"/>
      <path class="cls-1" d="M281.05,714.34v1.05h18.95v-1.05h-.81c-.72,0-1.45-.23-2.17-.68s-1.24-1.1-1.54-1.95c-.29-.8-.21-1.76,.21-2.88l4.73-11.34h21.09l4.62,11.58h-.24c.67,1.67,.59,2.97-.25,3.89-.84,.92-1.81,1.38-2.93,1.38h-.6v1.05h28.42v-1.05h-.72c-1.38,0-2.79-.43-4.22-1.29-1.35-.8-2.51-2.14-3.49-3.96l-26.71-57.9h-.81c0,.65-.21,1.56-.63,2.71-.42,1.16-.88,2.36-1.39,3.6-.51,1.25-.99,2.36-1.44,3.34-.45,.98-.76,1.64-.94,2l-20.92,46.84c-.87,1.52-1.9,2.66-3.13,3.37-1.47,.86-2.89,1.29-4.27,1.29h-.81Zm30.43-41.7l8.66,21.7h-17.71l9.04-21.7Z"/>
      <path class="cls-1" d="M358.19,715.4h19.7v-1.05h-.5c-1.37,0-2.75-.42-3.77-1.34-1.3-1.16-1.98-2.6-2.04-4.31v-22.77h28.42v22.77c0,1.55-.56,2.89-1.67,3.99-1.11,1.11-2.43,1.66-3.95,1.66h-1.76v1.05h27.37v-1.05h-.52c-1.87,0-3.71-.81-4.77-2.35-.64-.93-.98-2-1.02-3.21v-48.88c.04-1.21,.38-2.27,1.02-3.21,1.05-1.54,2.89-2.35,4.76-2.35h.54s0-1.05,0-1.05h-27.37v1.05h1.76c1.52,0,2.83,.55,3.95,1.64,1.11,1.09,1.67,2.41,1.67,3.94v22.84h-28.42v-22.84c.06-1.68,.74-3.1,2.04-4.25,1.02-.91,2.38-1.32,3.74-1.32h.53s0-1.05,0-1.05h-27.37v1.05h1.41c1.2,0,2.39,.33,3.36,1.03,1.66,1.2,2.52,2.71,2.6,4.53v48.88c-.06,1.53-.69,2.84-1.86,3.93-1.18,1.09-2.6,1.63-4.26,1.63h-1.25v1.05h7.67Z"/>
      <path class="cls-1" d="M36.09,756.72l-16.51-10.72c-1.79-1.09-3.26-2.28-4.41-3.54-1.15-1.27-1.7-2.77-1.64-4.5,.12-2.3,1.2-4.26,3.24-5.88,2.05-1.61,4.74-2.42,8.08-2.42,3.69,0,6.64,.91,8.86,2.72,2.22,1.81,3.33,4.22,3.33,7.22h.98l1.03-11.6s0,0-.01,0l.1-1.03h-5.99c-.59-.07-1.18-.14-1.83-.22-1.81-.2-3.57-.36-5.26-.47-1.7-.11-3.12-.17-4.27-.17-3.62,0-6.74,.63-9.36,1.9-2.62,1.26-4.68,3.03-6.17,5.3-1.5,2.27-2.36,4.91-2.59,7.9-.34,3.17,.17,6.1,1.56,8.8,1.38,2.7,3.59,4.92,6.64,6.64l15.1,10.01c2.42,1.32,4.16,2.7,5.22,4.14,1.06,1.44,1.6,3.05,1.6,4.83,0,2.65-1.04,4.91-3.11,6.77-2.07,1.87-5,2.83-8.8,2.89-3.45,.06-6.43-.65-8.93-2.11-2.5-1.47-4.4-3.45-5.7-5.96-1.29-2.5-1.83-5.22-1.6-8.15h-.77c-.75,1.21-1.37,2.74-1.86,4.58-.49,1.84-.76,3.66-.82,5.44-.06,1.79,.14,3.31,.6,4.58,1.09,1.1,2.56,2.03,4.41,2.81,1.84,.78,3.96,1.38,6.35,1.81,2.39,.43,4.85,.65,7.39,.65,6.91,0,12.39-1.57,16.42-4.71,4.03-3.14,6.19-7.53,6.48-13.18,.17-3.23-.42-6.05-1.77-8.47-1.35-2.42-3.36-4.38-6.01-5.88Z"/>
      <path class="cls-1" d="M117.17,726.97h-19.27v1.05s0,0,.7,0c1.52,0,2.84,.55,3.95,1.64,1.11,1.09,1.67,2.41,1.67,3.94v22.84h-28.42v-17.43s-6.27-.02-12.53-3.55c.03,1.27,.01,32.72,0,46.25h0c-.05,1.45-.6,2.69-1.63,3.72-1.03,1.03-2.27,1.55-3.72,1.55h-1.07v1.05h26.32v-1.05h-1.63c-1.32,0-2.64-.4-3.65-1.25-1.33-1.13-2.02-2.52-2.09-4.18v-21.93h28.42v21.93c0,1.5-.56,2.78-1.67,3.84-1.11,1.07-2.43,1.6-3.95,1.6q-.7,0-.7,0v1.05h26.32v-1.05h-.65c-1.6,0-3.19-.59-4.24-1.79-.9-1.03-1.38-2.25-1.43-3.67v-48.03c.05-1.41,.53-2.64,1.43-3.67,1.05-1.2,2.64-1.79,4.23-1.79h.66s0-1.05,0-1.05h-7.04Z"/>
      <path class="cls-1" d="M192.03,785.71c-1.32-.8-2.45-2.12-3.41-3.93l-25.98-56.9h-.79c0,.64-.2,1.53-.61,2.67-.41,1.14-.86,2.32-1.36,3.54-.5,1.23-.96,2.32-1.4,3.28-.44,.96-.74,1.62-.92,1.97l-20.36,46.07c-.84,1.49-1.85,2.61-3.04,3.31-1.43,.85-2.81,1.27-4.16,1.27h-.54v1.05h18.95v-1.05h-.76c-.68,0-1.36-.21-2.04-.64-.68-.42-1.16-1.03-1.44-1.82-.27-.75-.19-1.66,.2-2.71l4.43-10.62h20.75l4.2,10.53h-.04c.67,1.67,.58,2.97-.25,3.89-.84,.92-1.81,1.38-2.92,1.38h-1.07v1.05h27.37v-1.05h-.7c-1.34,0-2.71-.42-4.11-1.27Zm-41.43-18.73l8.91-21.39,8.54,21.39h-17.45Z"/>
      <path class="cls-1" d="M248.2,777.4c-1.53,2.07-3.37,3.65-5.52,4.76-2.15,1.1-4.65,1.66-7.48,1.66h-12.03v-50.36c.06-1.64,.73-3.02,2.01-4.14,1-.88,2.34-1.29,3.68-1.29h1.68s0-1.05,0-1.05h-26.32v1.05h1.07c1.42,0,2.64,.53,3.65,1.6,1.01,1.07,1.55,2.36,1.6,3.86v48.03c-.05,1.5-.59,2.79-1.6,3.86-1.01,1.07-2.23,1.6-3.65,1.6h-1.07v1.05h45.44l4.04-17.89h-1.83c-.91,2.78-2.12,5.2-3.65,7.27Z"/>
      <path class="cls-1" d="M315.06,729.87c-5.14-2.58-11.19-3.87-18.16-3.87s-13.02,1.29-18.16,3.87c-5.14,2.58-9.1,6.24-11.89,10.97-2.79,4.73-4.18,10.35-4.18,16.85s1.39,12.19,4.18,16.89c2.79,4.7,6.75,8.34,11.89,10.93,5.14,2.58,11.19,3.87,18.16,3.87s13.02-1.29,18.16-3.87c5.14-2.58,9.11-6.24,11.93-10.97,2.82-4.73,4.22-10.35,4.22-16.85s-1.41-12.19-4.22-16.89c-2.82-4.7-6.79-8.34-11.93-10.93Zm-.61,42.71c-1.6,4.18-3.89,7.42-6.88,9.71-2.99,2.29-6.54,3.44-10.67,3.44s-7.59-1.15-10.58-3.44c-2.99-2.29-5.3-5.53-6.92-9.71-1.62-4.18-2.44-9.14-2.44-14.89s.81-10.71,2.44-14.89c1.62-4.18,3.93-7.42,6.92-9.71,2.99-2.29,6.52-3.44,10.58-3.44s7.68,1.15,10.67,3.44c2.99,2.29,5.28,5.53,6.88,9.71,1.6,4.18,2.4,9.14,2.4,14.89s-.8,10.71-2.4,14.89Z"/>
      <path class="cls-1" d="M421.77,786.97c-1.5,0-2.86-.48-4.07-1.43-1.16-.91-1.88-2.19-2.2-3.81l-7.43-55.81h-.76l-25.88,44.41-27.04-44.41h-.78l-7.19,55.79h-.03c-.22,1.67-.92,2.97-2.09,3.89-1.17,.92-2.5,1.38-4.01,1.38h-1.34v1.05h16.56s-1.73-1.04-2.4-1.82c-.67-.78-1-1.64-.48-2.57v-.26l2.87-31.06,22.39,37.81h.87c0-1.68,.28-3.13,.83-4.58,.55-1.45,1.41-3.19,2.57-5.23l16.28-28.23,3.67,31.26v.28c-.27,.93-.59,1.78-1.23,2.57-.64,.78-2.44,1.82-2.44,1.82h24.72v-1.05h-1.39Z"/>
    </g>
  </g>
  <g class="cls-2">
    <path class="cls-1" d="M15.5,639.66h-.12l-7.72-11.33v17.14h-2.33v-21.2h2.42l7.72,11.57,7.72-11.57h2.42v21.2h-2.39v-17.17l-7.73,11.36Z"/>
    <path class="cls-1" d="M60.26,624.28v21.2h-2.39v-21.2h2.39Z"/>
    <path class="cls-1" d="M108.12,624.28h2.33v21.2h-1.91l-13.69-17.39v17.39h-2.33v-21.2h2.24l13.36,16.99v-16.99Z"/>
    <path class="cls-1" d="M145.1,624.28v21.2h-2.39v-21.2h2.39Z"/>
    <path class="cls-1" d="M179.44,630.92c.16,.41,.45,.77,.88,1.11s1.01,.64,1.76,.91c.75,.27,1.71,.53,2.88,.77,2.36,.52,4.1,1.25,5.23,2.18,1.12,.93,1.68,2.21,1.68,3.85,0,.91-.18,1.74-.54,2.49-.36,.75-.85,1.38-1.48,1.91-.63,.52-1.39,.93-2.28,1.21-.89,.28-1.86,.42-2.91,.42-1.7,0-3.25-.27-4.65-.82s-2.74-1.39-4.01-2.54l1.48-1.75c1.11,1.01,2.23,1.76,3.36,2.26,1.13,.49,2.43,.74,3.91,.74s2.58-.33,3.44-1c.86-.67,1.29-1.55,1.29-2.64,0-.5-.08-.95-.24-1.35s-.45-.75-.85-1.08c-.41-.33-.97-.62-1.69-.88-.72-.26-1.63-.51-2.75-.76-1.21-.26-2.27-.57-3.17-.91-.9-.34-1.65-.76-2.23-1.24-.59-.49-1.02-1.05-1.31-1.7-.28-.65-.42-1.42-.42-2.31s.17-1.63,.51-2.34,.83-1.32,1.46-1.83c.63-.52,1.36-.92,2.21-1.21,.85-.29,1.78-.44,2.79-.44,1.55,0,2.91,.21,4.07,.64s2.29,1.07,3.38,1.93l-1.39,1.85c-.99-.81-1.98-1.39-2.98-1.76s-2.04-.55-3.13-.55c-.69,0-1.31,.09-1.86,.27-.56,.18-1.03,.42-1.42,.73-.39,.3-.7,.67-.91,1.09s-.32,.88-.32,1.36,.08,.96,.24,1.36Z"/>
    <path class="cls-1" d="M230.33,645.48h-2.39v-18.99h-7.12v-2.21h16.63v2.21h-7.12v18.99Z"/>
    <path class="cls-1" d="M283.33,626.46h-12.93v7.24h11.57v2.18h-11.57v7.42h13.08v2.18h-15.48v-21.2h15.33v2.18Zm-9.33-4.06l2.87-4.39,2.43,1.12-3.42,3.27h-1.88Z"/>
    <path class="cls-1" d="M328.94,645.48l-6.15-8.24h-6.06v8.24h-2.39v-21.2h9.12c1.17,0,2.23,.15,3.16,.45,.94,.3,1.74,.73,2.41,1.29,.67,.56,1.18,1.22,1.55,2,.36,.78,.54,1.64,.54,2.59,0,.89-.14,1.68-.42,2.38s-.68,1.3-1.2,1.82c-.51,.51-1.12,.94-1.83,1.29-.71,.35-1.47,.59-2.3,.73l6.51,8.66h-2.94Zm-1.64-17.88c-.95-.74-2.29-1.11-4.01-1.11h-6.56v8.63h6.53c.79,0,1.52-.1,2.19-.3,.67-.2,1.24-.49,1.73-.87,.49-.37,.86-.84,1.14-1.38,.27-.55,.41-1.17,.41-1.85,0-1.34-.48-2.38-1.43-3.12Z"/>
    <path class="cls-1" d="M364.89,624.28v21.2h-2.39v-21.2h2.39Z"/>
    <path class="cls-1" d="M417.05,639.04c-.52,1.32-1.26,2.49-2.21,3.5s-2.09,1.81-3.42,2.41c-1.33,.6-2.81,.89-4.42,.89s-3.09-.29-4.41-.88c-1.32-.59-2.46-1.38-3.41-2.38-.95-1-1.68-2.16-2.2-3.48-.51-1.32-.77-2.72-.77-4.19s.26-2.87,.79-4.19,1.26-2.49,2.21-3.5,2.09-1.81,3.42-2.41,2.81-.9,4.42-.9,3.08,.29,4.41,.88c1.32,.59,2.46,1.38,3.41,2.38,.95,1,1.68,2.16,2.2,3.48s.77,2.72,.77,4.19-.26,2.87-.79,4.2Zm-2.32-7.56c-.41-1.07-.99-2-1.74-2.79-.75-.79-1.63-1.41-2.65-1.88-1.02-.46-2.14-.7-3.35-.7s-2.33,.23-3.35,.68c-1.02,.46-1.89,1.08-2.62,1.86s-1.3,1.71-1.71,2.77c-.41,1.06-.62,2.2-.62,3.41s.21,2.35,.62,3.42,.99,2,1.74,2.79c.75,.79,1.63,1.41,2.65,1.88,1.02,.46,2.14,.7,3.35,.7s2.33-.23,3.35-.68c1.02-.45,1.89-1.07,2.62-1.86,.73-.79,1.3-1.71,1.71-2.77,.41-1.06,.62-2.19,.62-3.41s-.21-2.35-.62-3.42Z"/>
  </g>
  <path class="cls-1" d="M418.3,347.56c.88,50.45-30.98,100.92-69.53,114.24,96.54-144.89-77.59-258.63-14.02-340.1-59.74,15.79-39.35,69.8-122.66,133.15,23.83-52.61,106.24-80.89,0-254.84,11.99,164.33-272.53,292.81-120.73,480.82-74.48-53.63-80.19-124.76-52.62-210.96-82.82,123.58-18.15,292.4,123.42,324.93,18.15-8.65,38.01-25.31,38-56.97l.45-39.38c0-1.44-1.09-2.64-2.52-2.79-61.21-6.84-108.94-58.89-108.94-121.89v-76.88c0-.55,.7-.76,1.02-.32,8.24,11.54,16.26,3.38,19.01-.13,.34-.42,1-.2,1,.34v76.99c0,51.21,38.06,93.69,87.38,100.64,1.67,.24,3.15-1.09,3.15-2.78l.06-10.12c0-1.42-1.05-2.59-2.45-2.8-41.05-5.9-72.72-41.33-72.72-83.99l-.08-53.55v-14.47c0-.55,.7-.76,1.02-.32,8.23,11.54,16.26,3.38,19.01-.13,.32-.42,1-.2,1,.34v14.54l.08,53.58c0,30.77,21.86,56.51,50.86,62.52,1.74,.35,3.38-.98,3.38-2.75l.06-11.2c0-1.26-.83-2.4-2.06-2.69-21.11-5.22-36.81-24.31-36.81-47.02l-.07-42.59v-4.77s-.01-9.7-.01-9.7c0-.55,.7-.76,1.02-.32,8.23,11.54,16.26,3.38,19.01-.13,.32-.42,1-.2,1,.34v9.79l.08,47.37c0,10.16,5.57,19.07,13.79,23.78,1.85,1.07,4.16-.31,4.18-2.45l.25-58.91v-9.64c0-.55,.7-.76,1.02-.32,8.24,11.54,16.26,3.38,19.01-.13,.34-.42,1-.2,1,.34v9.84l-.03,4.81-.22,52.56c-.01,2.31,2.61,3.64,4.49,2.29,6.84-4.98,11.29-13.05,11.29-22.14l-.07-42.59v-4.77s-.01-9.7-.01-9.7c0-.55,.7-.76,1.02-.31,8.23,11.54,16.26,3.36,19.01-.14,.34-.42,1-.18,1,.35v9.77l.08,47.37c0,22.04-14.78,40.67-34.93,46.51-1.18,.35-1.98,1.46-1.98,2.68l-.06,11.3c-.01,1.82,1.7,3.18,3.48,2.75,28.04-6.73,48.91-32,48.91-62.08l-.08-53.48s-.01-.07-.01-.11v-14.43c0-.55,.7-.76,1.02-.32,8.24,11.54,16.26,3.38,19.01-.13,.34-.42,1-.2,1,.34v9.5c.01,.08,.01,.18,.01,.28l.08,58.33c0,42.14-30.84,77.19-71.13,83.78-1.37,.21-2.4,1.37-2.4,2.76l-.06,10.51c0,1.68,1.46,3.03,3.14,2.8,49.91-6.42,88.57-49.18,88.57-100.79v-76.88c0-.55,.7-.76,1.02-.32,8.24,11.54,16.26,3.38,19.01-.13,.34-.42,1-.2,1,.34v76.99c0,63.46-48.43,115.82-110.29,122.05-1.44,.14-2.55,1.33-2.55,2.78l-.45,39.32c.02,31.83,20.14,48.5,38.37,57.1,113.1-26.03,183.2-142.63,158.75-247.44Zm-318.56-51.3c-4.64,0-8.41-3.8-8.41-8.48,0-7.26,4.68-8.48,8.41-21.55,2.36,8.68,8.41,16.86,8.41,21.55s-3.76,8.48-8.41,8.48Zm36.36,9.81c-4.65,0-8.41-3.8-8.41-8.48,0-7.26,4.67-8.48,8.41-21.55,2.34,8.68,8.41,16.86,8.41,21.55s-3.77,8.48-8.41,8.48Zm36.45,9.81c-4.65,0-8.41-3.8-8.41-8.48,0-7.26,4.67-8.48,8.41-21.55,2.34,8.68,8.41,16.86,8.41,21.55s-3.77,8.48-8.41,8.48Zm39.34,9.81c-4.64,0-8.41-3.8-8.41-8.48,0-7.26,4.68-8.48,8.41-21.55,2.36,8.68,8.41,16.86,8.41,21.55s-3.76,8.48-8.41,8.48Zm36.46-9.8c-4.64,0-8.41-3.8-8.41-8.5,0-7.26,4.68-8.47,8.41-21.53,2.36,8.68,8.41,16.85,8.41,21.53s-3.77,8.5-8.41,8.5Zm36.43-9.83c-4.64,0-8.41-3.8-8.41-8.48,0-7.26,4.68-8.48,8.41-21.55,2.36,8.68,8.41,16.86,8.41,21.55s-3.76,8.48-8.41,8.48Zm39.25-9.81c-4.64,0-8.41-3.8-8.41-8.48,0-7.26,4.68-8.48,8.41-21.55,2.36,8.68,8.41,16.86,8.41,21.55s-3.76,8.48-8.41,8.48Z"/>
</svg>